<svg viewBox="0 0 215 215" fill="none" xmlns="http://www.w3.org/2000/svg">
  <circle cx="107.2" cy="107.2" r="107.2" stroke="currentColor" stroke-width="0.5" opacity="0.2"/>
  <path fill="currentColor" d="M108.055 140.122c0 1.27 2.13 6.353 5.42 12.933 6.135 12.27 7.791 17.186 8.17 24.24.551 10.281-2.974 18.923-11.16 27.351-1.542 1.585-2.76 2.922-2.708 2.965.232.205 5.324-3.185 7.669-5.104 5.153-4.223 9.422-10.913 11.166-17.507 1.114-4.202 1.132-11.354.043-15.785-1.702-6.925-5.33-13.376-11.956-21.253-1.885-2.24-4.15-5.052-5.034-6.245-.888-1.194-1.61-1.913-1.61-1.595Zm-4.25-28.18c-.389.663-2.341 3.555-4.34 6.429-5.952 8.562-7.907 13.737-8.333 22.027-.269 5.275.48 10.276 2.35 15.64 2.167 6.23 4.723 10.928 12.52 23.037 5.144 7.987 6.622 11.669 6.595 16.455-.016 3.149.119 3.032 1.86-1.585 1.025-2.718 1.138-3.44 1.15-7.278.016-6.343-1.434-11.01-7.371-23.704-5.582-11.94-7.583-17.807-8.342-24.447-.701-6.133-.061-10.552 2.809-19.35 1.487-4.556 2.387-8.427 1.965-8.427-.09 0-.475.541-.863 1.202Zm-20.709-7.223c-7.66 7.736-12.197 16.2-14.55 27.14-.958 4.441-.95 15.188.015 19.607 1.977 9.062 6.28 17.67 12.078 24.163 2.537 2.843 7.43 6.904 13.59 11.277 2.803 1.99 6.23 4.734 7.623 6.1 1.497 1.471 2.427 2.169 2.283 1.716-1.086-3.424-3.48-6.576-7.947-10.463-5.836-5.077-11.629-12.133-15.053-18.333-1.848-3.348-3.81-8.654-4.762-12.88-3.247-14.423-.924-29.485 7.011-45.453 1.671-3.363 3.011-6.115 2.98-6.115-.033 0-1.502 1.46-3.268 3.241ZM36.02 128.29c-.16.792-.2 4.042-.083 7.225.224 6.169 1.074 10.594 3.036 15.809 4.52 12.005 14.937 22.48 29.821 29.977 2.555 1.288 10.971 4.997 11.335 4.997.086 0-2.304-1.658-5.312-3.684-14.766-9.946-23.732-19.524-30.363-32.444-3.192-6.225-6.574-15.604-7.8-21.65l-.34-1.669-.294 1.439Zm95.74-83.255c0 .082 1.02 1.358 2.262 2.833 2.524 2.996 3.791 4.756 5.46 7.587l1.134 1.921-2.855-2.393c-4.77-4.006-9.517-6.142-15.285-6.882-4.318-.554-8.174-.08-16.553 2.041-11.344 2.867-17.531 3.825-26.017 4.027l-3.52.086 4.077.924c3.61.823 4.911.927 11.481.927 6.29 0 8.021-.128 11.482-.847 2.24-.469 4.407-.949 4.814-1.068.407-.12-.554.648-2.133 1.71-4.21 2.828-7.565 6.904-12.363 15.023-6.62 11.19-7.745 13-9.774 15.69-2.856 3.782-5.126 6.067-11.21..."/>
</svg>